<?xml version="1.0" encoding="iso-8859-1"?>
<!-- Uploaded to: SVG Repo, www.svgrepo.com, Generator: SVG Repo Mixer Tools -->
<svg fill="#000000" height="800px" width="800px" version="1.1" id="Layer_1" xmlns="http://www.w3.org/2000/svg" xmlns:xlink="http://www.w3.org/1999/xlink" 
	 viewBox="0 0 512 512" xml:space="preserve">
<g>
	<g>
		<path d="M399.868,202.775c4.674,0,8.463-3.789,8.463-8.463s-3.789-8.463-8.463-8.463h-50.527v-25.388h50.527
			c4.674,0,8.463-3.789,8.463-8.463s-3.789-8.463-8.463-8.463h-50.527v0.306c0-9.24-1.636-18.13-4.391-26.461l50.302-25.182
			c4.18-2.091,5.843-7.174,3.754-11.355c-2.093-4.182-7.194-5.876-11.37-3.785l-49.715,24.853
			c-5.519-9.618-12.872-18.052-21.581-24.829l31.331-47c2.593-3.888,1.539-9.143-2.347-11.736
			c-3.888-2.593-9.145-1.541-11.738,2.347l-31.455,47.37c-11.32-5.63-24.725-8.816-37.419-8.822V8.463
			c0-4.674-3.789-8.463-8.463-8.463s-8.463,3.789-8.463,8.463v50.779c-12.694,0.006-26.347,3.192-37.669,8.822l-31.642-47.37
			c-2.591-3.888-7.88-4.946-11.767-2.347c-3.888,2.593-4.955,7.847-2.364,11.736l31.327,47c-9.215,7.169-16.93,16.182-22.541,26.5
			l-39.407-26.017c-3.899-2.574-9.153-1.5-11.727,2.399c-2.576,3.901-1.502,9.151,2.399,11.725l42.232,27.8
			c-2.326,7.717-3.467,15.888-3.467,24.351v-0.306h-51.027c-4.673,0-8.463,3.789-8.463,8.463s3.789,8.463,8.463,8.463h51.027v25.388
			h-51.027c-4.673,0-8.463,3.789-8.463,8.463s3.789,8.463,8.463,8.463h51.027v25.388h-51.027c-4.673,0-8.463,3.789-8.463,8.463
			s3.789,8.463,8.463,8.463h51.027v25.388h-51.027c-4.673,0-8.463,3.789-8.463,8.463c0,4.674,3.789,8.463,8.463,8.463h51.027v25.388
			h-51.027c-4.673,0-8.463,3.789-8.463,8.463s3.789,8.463,8.463,8.463h51.027v25.388h-51.027c-4.673,0-8.463,3.789-8.463,8.463
			s3.789,8.463,8.463,8.463h51.2c0.719,8.463,2.347,14.339,4.773,20.913l-43.711,28.942c-3.901,2.574-4.975,7.866-2.399,11.766
			c1.626,2.465,4.322,3.82,7.07,3.82c1.599,0,3.219-0.442,4.655-1.39l41.895-27.655c5.318,8.554,12.124,16.091,20.048,22.256
			l-31.333,47c-2.593,3.888-1.541,9.145,2.347,11.738c1.442,0.963,3.072,1.421,4.686,1.421c2.736,0,5.42-1.322,7.05-3.768
			l31.704-47.37c11.322,5.63,24.975,8.816,37.669,8.822v55.01c0,4.674,3.789,8.463,8.463,8.463s8.463-3.789,8.463-8.463v-55.01
			c12.694-0.006,26.097-3.192,37.419-8.823l31.517,47.37c1.63,2.446,4.283,3.768,7.019,3.768c1.612,0,3.227-0.459,4.671-1.421
			c3.886-2.593,4.932-7.847,2.339-11.736l-31.337-47c8.709-6.777,16.056-15.211,21.574-24.828l49.705,24.853
			c1.217,0.607,2.506,0.895,3.779,0.895c3.103,0,6.093-1.715,7.577-4.68c2.089-4.182,0.395-9.264-3.785-11.355l-50.364-25.349
			c1.905-5.763,3.221-11.843,3.841-18.19h51.2c4.674,0,8.463-3.789,8.463-8.463s-3.789-8.463-8.463-8.463h-50.527v-25.388h50.527
			c4.674,0,8.463-3.789,8.463-8.463s-3.789-8.463-8.463-8.463h-50.527v-25.388h50.527c4.674,0,8.463-3.789,8.463-8.463
			s-3.789-8.463-8.463-8.463h-50.527v-25.388h50.527c4.674,0,8.463-3.789,8.463-8.463s-3.789-8.463-8.463-8.463h-50.527v-25.388
			H399.868z M332.415,363.926L332.415,363.926c0,37.318-30.643,67.345-67.998,67.345h-16.835c-37.355,0-67.498-30.027-67.498-67.345
			V143.841c0-37.316,30.143-68.008,67.498-68.008h16.835c37.355,0,67.998,30.692,67.998,68.008V363.926z"/>
	</g>
</g>
<g>
	<g>
		<path d="M247.537,169.256c-27.998,0-50.777,22.779-50.777,50.777s22.779,50.777,50.777,50.777
			c27.998,0,50.777-22.779,50.777-50.777S275.535,169.256,247.537,169.256z M247.537,253.884c-18.665,0-33.851-15.186-33.851-33.851
			c0-18.665,15.186-33.851,33.851-33.851c18.665,0,33.851,15.186,33.851,33.851C281.388,238.698,266.203,253.884,247.537,253.884z"
			/>
	</g>
</g>
<g>
	<g>
		<path d="M281.388,287.736c-18.665,0-33.851,15.186-33.851,33.851c0,18.665,15.186,33.851,33.851,33.851
			c18.665,0,33.851-15.186,33.851-33.851C315.24,302.922,300.054,287.736,281.388,287.736z M281.388,338.512
			c-9.333,0-16.926-7.593-16.926-16.926c0-9.333,7.593-16.926,16.926-16.926c9.333,0,16.926,7.593,16.926,16.926
			C298.314,330.92,290.721,338.512,281.388,338.512z"/>
	</g>
</g>
</svg>