<?xml version="1.0" encoding="iso-8859-1"?>
<!-- Uploaded to: SVG Repo, www.svgrepo.com, Generator: SVG Repo Mixer Tools -->
<!DOCTYPE svg PUBLIC "-//W3C//DTD SVG 1.1//EN" "http://www.w3.org/Graphics/SVG/1.1/DTD/svg11.dtd">
<svg fill="#000000" height="800px" width="800px" version="1.1" id="Capa_1" xmlns="http://www.w3.org/2000/svg" xmlns:xlink="http://www.w3.org/1999/xlink" 
	 viewBox="0 0 435.693 435.693" xml:space="preserve">
<g>
	<path d="M132.262,105.278c-12.223-5.482-25.469-6.979-37.301-4.213c-12.636,2.952-22.598,10.701-27.333,21.259
		c-9.476,21.131,4.1,47.868,30.263,59.6c8.215,3.684,16.893,5.568,25.292,5.568c4.098,0,8.129-0.448,12.009-1.355
		c12.636-2.952,22.598-10.701,27.333-21.259C172,143.747,158.425,117.01,132.262,105.278z M144.275,156.694
		c-2.19,4.885-7.032,8.425-13.634,9.967c-7.483,1.746-16.437,0.659-24.566-2.987c-15.827-7.098-25.076-22.287-20.196-33.167
		c2.19-4.885,7.032-8.425,13.634-9.967c2.342-0.547,4.826-0.816,7.386-0.816c5.619,0,11.595,1.298,17.181,3.803
		C139.905,130.624,149.154,145.813,144.275,156.694z"/>
	<path d="M330.873,205.662c-12.457-14.875-28.711-25.193-45.77-29.054c-18.05-4.085-34.881-0.565-47.391,9.912
		c-12.511,10.477-18.932,26.428-18.079,44.915c0.806,17.471,8.109,35.285,20.566,50.16s28.711,25.193,45.77,29.054
		c4.904,1.11,9.719,1.659,14.381,1.659c12.496,0,23.898-3.94,33.01-11.57l-0.001,0c12.511-10.477,18.932-26.428,18.079-44.915
		C350.633,238.351,343.329,220.537,330.873,205.662z M320.52,285.402C320.52,285.403,320.52,285.403,320.52,285.402
		c-7.613,6.376-18.314,8.415-30.136,5.738c-12.812-2.899-25.188-10.85-34.85-22.388c-9.662-11.538-15.316-25.118-15.922-38.24
		c-0.558-12.106,3.327-22.284,10.94-28.659c5.429-4.546,12.426-6.886,20.279-6.886c3.162,0,6.464,0.379,9.857,1.147
		c12.812,2.899,25.188,10.85,34.85,22.388C334.829,241.537,337.063,271.548,320.52,285.402z"/>
	<path d="M435.609,240.566c-0.707-5.477-5.727-9.346-11.199-8.636l-9.207,1.189c-3.074-11.78-8.258-22.861-15.333-32.785
		l10.346-8.91c4.186-3.604,4.656-9.918,1.052-14.103c-3.604-4.185-9.919-4.657-14.103-1.052l-10.453,9.002
		c-2.047-1.925-4.18-3.782-6.405-5.558c-14.134-11.279-28.749-21.905-43.772-31.872l2.404-1.482
		c4.701-2.898,6.162-9.059,3.264-13.76c-2.896-4.7-9.057-6.163-13.76-3.264l-10.635,6.557
		c-13.986-8.573-28.299-16.574-42.888-23.997L279,101.501c2.018-5.141-0.514-10.945-5.655-12.962
		c-5.141-2.02-10.944,0.515-12.962,5.655l-3.49,8.893c-19.342-9.064-39.127-17.116-59.261-24.11l3.897-4.917
		c3.431-4.328,2.703-10.618-1.625-14.048c-4.328-3.43-10.617-2.703-14.049,1.625l-8.478,10.695
		c-10.731-3.313-21.549-6.325-32.439-9.034l2.578-13.584c1.03-5.426-2.533-10.66-7.96-11.689s-10.658,2.536-11.688,7.96
		l-2.431,12.807c-4.55-0.972-9.108-1.909-13.679-2.774c-15.478-2.928-31.067-1.04-45.094,5.272l-4.06-7.976
		c-2.506-4.923-8.528-6.879-13.448-4.376c-4.922,2.505-6.881,8.526-4.376,13.448l4.821,9.472c-5.223,4.262-9.803,9.128-13.65,14.499
		l-13.501-7.302c-4.858-2.627-10.926-0.819-13.554,4.039c-2.627,4.857-0.819,10.926,4.038,13.553l13.656,7.387
		c-1.644,4.46-2.894,9.105-3.695,13.904l-0.249,1.494c-5.816,34.881,13.077,68.805,45.948,82.496
		c6.574,2.738,13.071,5.642,19.491,8.692l-4.037,4.783c-3.562,4.221-3.027,10.53,1.193,14.091c1.877,1.584,4.166,2.358,6.444,2.358
		c2.844,0,5.669-1.207,7.647-3.55l7.11-8.425c3.458,1.846,6.894,3.733,10.298,5.669l-1.012,11.424
		c-0.487,5.501,3.577,10.356,9.078,10.843c0.301,0.027,0.599,0.04,0.895,0.04c5.124,0,9.488-3.917,9.949-9.118l0.15-1.692
		c37.839,24.137,71.788,53.944,100.192,88.233c14.471,17.469,34.079,29.477,55.913,34.427l-1.921,7.74
		c-1.331,5.36,1.936,10.784,7.296,12.115c0.81,0.201,1.619,0.297,2.417,0.297c4.487,0,8.568-3.042,9.697-7.593l2.499-10.066
		c0.843,0.021,1.686,0.042,2.528,0.042c20.869,0,41.221-6.471,58.433-18.763l3.368-2.406c12.33-8.805,22.269-19.951,29.408-32.64
		l7.249,6.744c1.926,1.792,4.371,2.679,6.81,2.679c2.68,0,5.354-1.071,7.323-3.188c3.762-4.043,3.534-10.371-0.51-14.133
		l-12.498-11.627c2.676-8.7,4.2-17.844,4.451-27.249c0.079-2.943,0.03-5.867-0.137-8.767l8.654-1.118
		C432.45,251.057,436.317,246.043,435.609,240.566z M364.6,324.79l-3.368,2.406c-16.769,11.976-37.257,17.056-57.691,14.307
		c-20.415-2.747-38.933-13.042-52.144-28.99C204.963,256.459,144.41,211.834,76.284,183.46
		c-24.246-10.098-38.19-35.077-33.909-60.745l0.249-1.492c2.483-14.892,10.67-27.852,23.052-36.492
		c9.486-6.619,20.502-10.06,31.816-10.06c3.498,0,7.026,0.329,10.545,0.996c94.19,17.832,184.026,59.217,259.796,119.68
		c20.152,16.081,31.316,40.053,30.63,65.77C397.78,286.701,385.438,309.908,364.6,324.79z"/>
	<path d="M172.981,328.197l2.707-0.551c5.411-1.103,8.905-6.383,7.803-11.795c-1.102-5.411-6.375-8.903-11.795-7.803l-14.998,3.055
		c-4.912-4.175-10.245-8.02-15.927-11.496l4.991-3.813c4.389-3.353,5.229-9.628,1.876-14.018c-3.352-4.388-9.628-5.23-14.017-1.876
		l-12.673,9.681c-2.952-1.212-5.955-2.346-9.017-3.374c-18.212-6.085-36.997-8.413-54.603-6.804l-1.703-14.707
		c-0.636-5.486-5.592-9.426-11.084-8.783c-5.486,0.635-9.419,5.598-8.783,11.084l1.858,16.045
		c-10.259,2.958-19.106,7.399-25.697,13.005c-8.95,7.613-13.079,16.875-11.638,26.095c3.615,26.211,40.225,40.565,74.709,52.814
		l0.716,13.422c0.284,5.334,4.697,9.468,9.977,9.468c0.18,0,0.36-0.005,0.541-0.015c5.516-0.294,9.748-5.003,9.453-10.518
		l-0.304-5.707c18.748,5.749,37.894,10.808,54.095,10.808c12.085,0,22.531-2.814,29.947-10.258
		c6.705-6.491,8.989-16.37,6.432-27.839C183.945,345.788,179.492,336.819,172.981,328.197z M165.488,367.804
		c-0.07,0.067-0.139,0.135-0.207,0.203c-3.158,3.199-8.618,4.479-15.429,4.478c-17.23-0.001-43.086-8.192-62.056-14.212
		c-26.187-9.239-65.613-23.176-67.71-38.91c-0.013-0.095-0.026-0.19-0.042-0.285c-0.325-1.997,1.526-4.983,4.832-7.795
		c11.224-9.546,41.981-19.052,80.702-6.11c38.715,13,57.54,39.117,60.747,53.5C167.271,362.908,166.949,366.407,165.488,367.804z"/>
</g>
</svg>