<?xml version="1.0" encoding="iso-8859-1"?>
<!-- Uploaded to: SVG Repo, www.svgrepo.com, Generator: SVG Repo Mixer Tools -->
<svg fill="#000000" height="800px" width="800px" version="1.1" id="Layer_1" xmlns="http://www.w3.org/2000/svg" xmlns:xlink="http://www.w3.org/1999/xlink" 
	 viewBox="0 0 512.001 512.001" xml:space="preserve">
<g>
	<g>
		<path d="M512.001,124.858c0-5.478-4.44-9.919-9.919-9.919h-23.464c-5.809-24.45-19.838-46.536-40.277-62.255
			c-16.532-12.715-36.013-20.312-56.152-22.414l2.623-18.223c0.78-5.422-2.984-10.451-8.405-11.231
			c-5.413-0.776-10.449,2.982-11.231,8.405l-2.989,20.774c-8.169,0.627-16.321,2.168-24.312,4.639L322.19,17.832
			c-3.736-4.005-10.013-4.222-14.02-0.483c-4.003,3.737-4.219,10.014-0.481,14.019l10.133,10.855
			c-35.65,17.239-59.644,52.494-62.454,93.473c-2.621,38.217-19.336,74.536-47.064,102.264
			c-18.945,18.945-41.901,32.743-66.731,40.423v-16.361c0-5.478-4.44-9.919-9.919-9.919c-5.479,0-9.919,4.441-9.919,9.919v21.109
			c-5.184,0.89-10.422,1.53-15.696,1.893c-4.51,0.309-8.948,0.883-13.305,1.693l-5.855-16.787
			c-1.804-5.172-7.458-7.904-12.632-6.101c-5.172,1.804-7.905,7.459-6.101,12.632l5.429,15.574
			c-31.318,11.727-56.061,36.82-66.671,69.47l-1.467,4.519c-11.316,34.822-4.741,72.942,17.586,101.973
			c21.061,27.387,53.546,43.288,87.842,43.288c2.012,0,4.032-0.056,6.056-0.165c51.258-2.797,101.546-16.172,147.815-39.086
			l7.482,18.553c1.559,3.866,5.276,6.212,9.204,6.212c1.235,0,2.49-0.233,3.706-0.722c5.081-2.049,7.538-7.828,5.49-12.908
			l-8.245-20.445c4.773-2.677,9.493-5.463,14.163-8.351l21.912,17.85c1.841,1.5,4.055,2.228,6.257,2.228
			c2.88,0,5.736-1.247,7.696-3.654c3.46-4.247,2.822-10.496-1.426-13.955l-17.029-13.872c6.332-4.396,12.522-8.977,18.571-13.723
			l17.964,10.359c1.562,0.901,3.265,1.328,4.946,1.328c3.429,0,6.765-1.781,8.602-4.966c2.736-4.745,1.108-10.81-3.637-13.548
			l-11.574-6.674c38.113-33.345,69.62-73.815,92.415-119.035c2.465-4.892,0.5-10.857-4.392-13.322
			c-4.889-2.465-10.857-0.499-13.322,4.392c-28.768,57.069-72.155,106.183-125.471,142.029
			c-54.6,36.708-117.607,57.976-182.21,61.502c-30.399,1.647-58.509-11.246-77.091-35.407c-18.609-24.2-23.874-54.725-14.441-83.756
			l1.464-4.511c11.552-35.554,43.591-60.214,81.622-62.822c42.998-2.949,83.816-21.711,114.934-52.827
			c31.117-31.118,49.878-71.936,52.827-114.935c2.609-38.03,27.267-70.068,62.818-81.621l4.519-1.468
			c29.024-9.431,59.551-4.167,83.752,14.445c24.161,18.582,37.065,46.679,35.406,77.091c-1.98,36.279-9.492,72.018-22.327,106.224
			c-1.924,5.129,0.674,10.847,5.803,12.772c5.129,1.923,10.847-0.672,12.77-5.802c5.536-14.756,10.117-29.785,13.762-45.011
			l19.451,8.541c1.297,0.57,2.652,0.84,3.983,0.84c3.817,0,7.455-2.215,9.087-5.933c2.202-5.015-0.078-10.867-5.094-13.071
			l-23.241-10.206c2.859-15.61,4.747-31.391,5.613-47.273c0.216-3.957,0.206-7.894,0.003-11.804h20.617
			C507.559,134.778,512.001,130.336,512.001,124.858z"/>
	</g>
</g>
<g>
	<g>
		<path d="M353.343,133.392c-18.945,0-34.36,15.414-34.36,34.36c0,18.947,15.414,34.36,34.36,34.36
			c18.945,0,34.358-15.414,34.358-34.36S372.289,133.392,353.343,133.392z M353.343,182.274c-8.008,0-14.521-6.515-14.521-14.521
			s6.515-14.521,14.521-14.521c8.007,0,14.52,6.515,14.52,14.521S361.35,182.274,353.343,182.274z"/>
	</g>
</g>
<g>
	<g>
		<path d="M179.814,374.308c-9.506,0-18.619,3.515-25.656,9.898c-4.058,3.681-4.364,9.952-0.685,14.011
			c3.681,4.058,9.953,4.363,14.011,0.685c3.382-3.066,7.761-4.755,12.33-4.755c10.124,0,18.362,8.237,18.362,18.362
			s-8.238,18.361-18.362,18.361c-7.398,0-14.041-4.404-16.925-11.219c-2.133-5.044-7.959-7.405-12.999-5.27
			c-5.045,2.135-7.406,7.955-5.27,13.001c5.995,14.171,19.81,23.327,35.194,23.327c21.064,0,38.2-17.138,38.2-38.2
			S200.878,374.308,179.814,374.308z"/>
	</g>
</g>
<g>
	<g>
		<path d="M334.489,232.552c-27.802,0-50.422,22.619-50.422,50.42s22.619,50.42,50.422,50.42c27.802,0,50.42-22.619,50.42-50.42
			S362.29,232.552,334.489,232.552z M334.489,313.554c-16.864,0-30.584-13.72-30.584-30.582s13.72-30.582,30.584-30.582
			s30.582,13.72,30.582,30.582S351.353,313.554,334.489,313.554z"/>
	</g>
</g>
<g>
	<g>
		<path d="M171.493,144.223c5.934-8.268,9.443-18.391,9.443-29.323c0-12.066-4.264-23.151-11.359-31.839l13.94-13.94
			c3.875-3.874,3.875-10.153,0.001-14.027s-10.153-3.875-14.028,0l-15.302,15.303c-7.064-3.773-15.121-5.92-23.671-5.92
			c-27.801,0-50.42,22.619-50.42,50.422c-0.003,24.901,18.149,45.63,41.913,49.686l2.682,15.843
			c0.819,4.842,5.016,8.265,9.768,8.265c0.549,0,1.107-0.046,1.668-0.14c5.401-0.914,9.038-6.035,8.124-11.435l-2.224-13.141
			c5.368-1.259,10.41-3.37,14.969-6.196l12.128,12.128c1.938,1.936,4.477,2.906,7.015,2.906s5.077-0.968,7.015-2.906
			c3.874-3.874,3.874-10.154,0-14.027L171.493,144.223z M130.514,145.481c-16.864,0-30.582-13.72-30.582-30.582
			c0-16.864,13.719-30.584,30.582-30.584s30.582,13.72,30.582,30.584C161.096,131.761,147.378,145.481,130.514,145.481z"/>
	</g>
</g>
<g>
	<g>
		<circle cx="379.186" cy="105.605" r="9.919"/>
	</g>
</g>
<g>
	<g>
		<circle cx="397.331" cy="207.705" r="9.919"/>
	</g>
</g>
<g>
	<g>
		<circle cx="319.129" cy="354.203" r="9.919"/>
	</g>
</g>
<g>
	<g>
		<circle cx="227.755" cy="319.618" r="9.919"/>
	</g>
</g>
<g>
	<g>
		<circle cx="108.237" cy="394.699" r="9.919"/>
	</g>
</g>
</svg>