<?xml version="1.0" encoding="utf-8"?>

<!-- Uploaded to: SVG Repo, www.svgrepo.com, Generator: SVG Repo Mixer Tools -->
<svg version="1.1" id="Icons" xmlns="http://www.w3.org/2000/svg" xmlns:xlink="http://www.w3.org/1999/xlink" 
	 viewBox="0 0 32 32" xml:space="preserve">
<style type="text/css">
	.st0{fill:none;stroke:#000000;stroke-width:2;stroke-linecap:round;stroke-linejoin:round;stroke-miterlimit:10;}
</style>
<g>
	<path d="M20.5,16C18,16,16,14,16,11.5S18,7,20.5,7S25,9,25,11.5S23,16,20.5,16z"/>
</g>
<path d="M14,11.5C14,7.9,16.9,5,20.5,5c1.1,0,2.1,0.3,3,0.8c0.4-0.8,0.3-1.7-0.4-2.3l-2.1-2.1c-0.8-0.8-2-0.8-2.8,0l-1,1l-0.1-0.1
	c-0.4-0.4-1-0.4-1.4,0L8.6,9.3c-0.9,0.9-1.1,2.3-0.6,3.4l-1.6,1.6c-0.8,0.8-0.8,2,0,2.8l1.4,1.4c0.4,0.4,0.9,0.6,1.4,0.6
	c0.5,0,1-0.2,1.4-0.6l1.6-1.6c0.4,0.2,0.8,0.3,1.3,0.3c0.8,0,1.5-0.3,2.1-0.9l0.2-0.2C14.7,14.9,14,13.3,14,11.5z"/>
<g>
	<path d="M14.1,24H5c-1.7,0-3,1.3-3,3v2c0,0.6,0.4,1,1,1h15.9L14.1,24z"/>
	<path d="M27,11.5C27,11.5,27,11.5,27,11.5c0,2.4-1.3,4.5-3.2,5.6c0.2,0.6,0.4,1.2,0.4,1.9c0,2.8-2.3,5-5.2,5h-2.3l4.6,5.8
		c5-1.1,8.7-5.5,8.7-10.8C30,16.2,28.9,13.5,27,11.5z"/>
</g>
</svg>